<svg t="1563363821054" class="icon" viewBox="0 0 1024 1024" version="1.1"
                        xmlns="http://www.w3.org/2000/svg" p-id="4710" width="29" height="29">
                        <path
                            d="M269.963636 893.672727m-60.509091 0a60.509091 60.509091 0 1 0 121.018182 0 60.509091 60.509091 0 1 0-121.018182 0Z"
                            p-id="4711" fill="#ffffff"></path>
                        <path
                            d="M805.236364 893.672727m-60.509091 0a60.509091 60.509091 0 1 0 121.018182 0 60.509091 60.509091 0 1 0-121.018182 0Z"
                            p-id="4712" fill="#ffffff"></path>
                        <path
                            d="M968.145455 237.381818c-4.654545-9.309091-13.963636-13.963636-27.927273-13.963636H204.8l-13.963636-144.290909C186.181818 60.509091 172.218182 46.545455 158.254545 46.545455H46.545455v69.818181h79.127272l69.818182 637.672728c0 18.618182 18.618182 32.581818 32.581818 32.581818h642.327273c18.618182 0 32.581818-13.963636 32.581818-27.927273L977.454545 265.309091c0-9.309091 0-18.618182-9.30909-27.927273zM837.818182 716.8H256l-46.545455-423.563636h693.527273L837.818182 716.8z"
                            p-id="4713" fill="#ffffff"></path>
                    </svg>